<mxfile host="app.diagrams.net" agent="Mozilla/5.0 (X11; Linux x86_64) AppleWebKit/537.36 (KHTML, like Gecko) Chrome/135.0.0.0 Safari/537.36 Edg/135.0.0.0" version="26.2.5">
  <diagram name="Page-1" id="xkY5KKIGVSjHwGSQ0BY-">
    <mxGraphModel dx="1659" dy="766" grid="1" gridSize="10" guides="1" tooltips="1" connect="1" arrows="1" fold="1" page="1" pageScale="1" pageWidth="850" pageHeight="1100" math="0" shadow="0">
      <root>
        <mxCell id="0" />
        <mxCell id="1" parent="0" />
        <mxCell id="aHfsIYiJVMhqHlslxqkd-1" value="" style="rounded=0;whiteSpace=wrap;html=1;" vertex="1" parent="1">
          <mxGeometry x="190" y="100" width="490" height="580" as="geometry" />
        </mxCell>
        <mxCell id="aHfsIYiJVMhqHlslxqkd-2" value="" style="rounded=0;whiteSpace=wrap;html=1;fillColor=light-dark(#FFFFFF,#0FFF0F);" vertex="1" parent="1">
          <mxGeometry x="250" y="140" width="370" height="260" as="geometry" />
        </mxCell>
        <mxCell id="aHfsIYiJVMhqHlslxqkd-3" value="" style="rounded=0;whiteSpace=wrap;html=1;" vertex="1" parent="1">
          <mxGeometry x="250" y="160" width="120" height="60" as="geometry" />
        </mxCell>
        <mxCell id="aHfsIYiJVMhqHlslxqkd-4" value="" style="rounded=0;whiteSpace=wrap;html=1;" vertex="1" parent="1">
          <mxGeometry x="375" y="160" width="120" height="60" as="geometry" />
        </mxCell>
        <mxCell id="aHfsIYiJVMhqHlslxqkd-5" value="" style="rounded=0;whiteSpace=wrap;html=1;" vertex="1" parent="1">
          <mxGeometry x="500" y="160" width="120" height="60" as="geometry" />
        </mxCell>
      </root>
    </mxGraphModel>
  </diagram>
</mxfile>
